<svg width="21" height="21" viewBox="0 0 21 21" fill="none" xmlns="http://www.w3.org/2000/svg">
<path d="M18.6713 8.868H18V8.83342H10.5V12.1667H15.2096C14.5225 14.1072 12.6763 15.5001 10.5 15.5001C7.73877 15.5001 5.50002 13.2613 5.50002 10.5001C5.50002 7.73883 7.73877 5.50008 10.5 5.50008C11.7746 5.50008 12.9342 5.98091 13.8171 6.76633L16.1742 4.40925C14.6859 3.02216 12.695 2.16675 10.5 2.16675C5.89794 2.16675 2.16669 5.898 2.16669 10.5001C2.16669 15.1022 5.89794 18.8334 10.5 18.8334C15.1021 18.8334 18.8334 15.1022 18.8334 10.5001C18.8334 9.94133 18.7759 9.39592 18.6713 8.868Z" fill="#FFC107"/>
<path d="M3.1275 6.62133L5.86542 8.62925C6.60625 6.79508 8.40042 5.50008 10.5 5.50008C11.7746 5.50008 12.9342 5.98091 13.8171 6.76633L16.1742 4.40925C14.6858 3.02216 12.695 2.16675 10.5 2.16675C7.29917 2.16675 4.52334 3.97383 3.1275 6.62133Z" fill="#FF3D00"/>
<path d="M10.5 18.8334C12.6525 18.8334 14.6083 18.0096 16.0871 16.67L13.5079 14.4875C12.6433 15.1455 11.5865 15.5012 10.5 15.5C8.33249 15.5 6.49207 14.118 5.79874 12.1892L3.08124 14.283C4.4604 16.9817 7.26124 18.8334 10.5 18.8334Z" fill="#4CAF50"/>
<path d="M18.6713 8.86784H18V8.83325H10.5V12.1666H15.2096C14.8809 13.0901 14.2889 13.8971 13.5067 14.4878L13.5079 14.487L16.0871 16.6695C15.9046 16.8353 18.8333 14.6666 18.8333 10.4999C18.8333 9.94117 18.7758 9.39575 18.6713 8.86784Z" fill="#1976D2"/>
</svg>
