<svg width="81" height="25" viewBox="0 0 81 25" fill="none" xmlns="http://www.w3.org/2000/svg">
<path d="M1.31647 23.9689L10.3035 13.698C10.4587 13.5206 10.7316 13.5115 10.8983 13.6782L18.42 21.1999C18.4964 21.2763 18.6001 21.3192 18.7082 21.3192H34.2465C34.3675 21.3192 34.4822 21.2655 34.5596 21.1726L41.037 13.3997C41.0534 13.3801 41.0678 13.359 41.0802 13.3367L47.289 2.16089C47.4522 1.86701 47.8811 1.88608 48.0176 2.19329L52.8776 13.1282C52.943 13.2753 53.0889 13.3702 53.25 13.3702H60.7083C60.8488 13.3702 60.9794 13.4426 61.0539 13.5617L67.4386 23.7774C67.5131 23.8965 67.6437 23.9689 67.7842 23.9689H80.8067" stroke="#B32053" stroke-width="2.0376"/>
</svg>
