<svg width="81" height="25" viewBox="0 0 81 25" fill="none" xmlns="http://www.w3.org/2000/svg">
<path d="M1.31653 23.5436L10.3035 13.2727C10.4588 13.0953 10.7317 13.0862 10.8984 13.2529L18.4201 20.7746C18.4965 20.851 18.6001 20.8939 18.7082 20.8939H34.2466C34.3675 20.8939 34.4822 20.8402 34.5597 20.7473L41.0371 12.9744C41.0534 12.9548 41.0679 12.9337 41.0803 12.9114L47.289 1.73559C47.4523 1.44172 47.8811 1.46078 48.0177 1.76799L52.8776 12.7029C52.943 12.8501 53.089 12.9449 53.25 12.9449H60.7083C60.8488 12.9449 60.9794 13.0173 61.0539 13.1364L67.4387 23.3521C67.5132 23.4712 67.6438 23.5436 67.7843 23.5436H80.8068" stroke="#BA1A1A" stroke-width="2.0376"/>
</svg>
