<svg width="20" height="20" viewBox="0 0 20 20" fill="none" xmlns="http://www.w3.org/2000/svg">
<path d="M9.47884 11.3501C9.47884 11.6376 9.71217 11.8709 9.99967 11.8709L10.0522 11.8684L10.1038 11.8709H11.1455C11.2836 11.8709 11.4161 11.816 11.5138 11.7184C11.6115 11.6207 11.6663 11.4882 11.6663 11.3501C11.6663 11.2119 11.6115 11.0795 11.5138 10.9818C11.4161 10.8841 11.2836 10.8292 11.1455 10.8292H10.5205V9.47508C10.5205 9.33695 10.4656 9.20447 10.368 9.1068C10.2703 9.00912 10.1378 8.95425 9.99967 8.95425C9.86154 8.95425 9.72906 9.00912 9.63139 9.1068C9.53371 9.20447 9.47884 9.33695 9.47884 9.47508V11.3501ZM11.458 1.66675H8.54134C8.08014 1.66676 7.63513 1.83675 7.29138 2.14422C6.94762 2.45169 6.72925 2.87507 6.67801 3.33341H5.20801C4.71073 3.33341 4.23381 3.53096 3.88218 3.88259C3.53055 4.23422 3.33301 4.71113 3.33301 5.20841V16.4584C3.33301 16.9557 3.53055 17.4326 3.88218 17.7842C4.23381 18.1359 4.71073 18.3334 5.20801 18.3334H14.7913C15.0376 18.3334 15.2814 18.2849 15.5089 18.1907C15.7364 18.0965 15.9431 17.9583 16.1172 17.7842C16.2913 17.6101 16.4294 17.4034 16.5236 17.1759C16.6178 16.9485 16.6663 16.7046 16.6663 16.4584V5.20841C16.6663 4.96219 16.6178 4.71837 16.5236 4.49088C16.4294 4.2634 16.2913 4.0567 16.1172 3.88259C15.9431 3.70848 15.7364 3.57037 15.5089 3.47614C15.2814 3.38191 15.0376 3.33341 14.7913 3.33341H13.3213C13.2701 2.87507 13.0517 2.45169 12.708 2.14422C12.3642 1.83675 11.9192 1.66676 11.458 1.66675ZM8.54134 2.91675H11.458C11.6238 2.91675 11.7827 2.9826 11.8999 3.09981C12.0172 3.21702 12.083 3.37599 12.083 3.54175C12.083 3.70751 12.0172 3.86648 11.8999 3.98369C11.7827 4.1009 11.6238 4.16675 11.458 4.16675H8.54134C8.37558 4.16675 8.21661 4.1009 8.0994 3.98369C7.98219 3.86648 7.91634 3.70751 7.91634 3.54175C7.91634 3.37599 7.98219 3.21702 8.0994 3.09981C8.21661 2.9826 8.37558 2.91675 8.54134 2.91675ZM9.99967 6.87508C10.5195 6.87508 11.0342 6.97747 11.5145 7.17639C11.9947 7.37532 12.4311 7.66689 12.7986 8.03445C13.1662 8.40202 13.4578 8.83838 13.6567 9.31863C13.8556 9.79887 13.958 10.3136 13.958 10.8334C13.958 11.3532 13.8556 11.868 13.6567 12.3482C13.4578 12.8285 13.1662 13.2648 12.7986 13.6324C12.4311 13.9999 11.9947 14.2915 11.5145 14.4904C11.0342 14.6894 10.5195 14.7917 9.99967 14.7917C8.94986 14.7917 7.94304 14.3747 7.20071 13.6324C6.45838 12.89 6.04134 11.8832 6.04134 10.8334C6.04134 9.7836 6.45838 8.77678 7.20071 8.03445C7.94304 7.29212 8.94986 6.87508 9.99967 6.87508Z" fill="black" fill-opacity="0.5"/>
</svg>
