<svg width="20" height="20" viewBox="0 0 20 20" fill="none" xmlns="http://www.w3.org/2000/svg">
<path opacity="0.5" d="M8.16716 17.3329H11.8338C15.2906 17.3329 17.0194 17.3329 18.0928 16.2586C19.1662 15.1843 19.1672 13.4563 19.1672 9.99959C19.1672 9.59443 19.1653 8.52559 19.1635 8.16626H0.833823C0.831989 8.52559 0.833823 9.59443 0.833823 9.99959C0.833823 13.4563 0.833823 15.1852 1.90724 16.2586C2.98066 17.332 4.71132 17.3329 8.16716 17.3329Z" fill="black" fill-opacity="0.5"/>
<path d="M4.375 11.25C4.375 11.0842 4.44085 10.9253 4.55806 10.8081C4.67527 10.6908 4.83424 10.625 5 10.625H6.66667C6.83243 10.625 6.9914 10.6908 7.10861 10.8081C7.22582 10.9253 7.29167 11.0842 7.29167 11.25C7.29167 11.4158 7.22582 11.5747 7.10861 11.6919C6.9914 11.8092 6.83243 11.875 6.66667 11.875H5C4.83424 11.875 4.67527 11.8092 4.55806 11.6919C4.44085 11.5747 4.375 11.4158 4.375 11.25ZM4.375 13.75C4.375 13.5842 4.44085 13.4253 4.55806 13.3081C4.67527 13.1908 4.83424 13.125 5 13.125H8.33333C8.49909 13.125 8.65806 13.1908 8.77527 13.3081C8.89248 13.4253 8.95833 13.5842 8.95833 13.75C8.95833 13.9158 8.89248 14.0747 8.77527 14.1919C8.65806 14.3092 8.49909 14.375 8.33333 14.375H5C4.83424 14.375 4.67527 14.3092 4.55806 14.1919C4.44085 14.0747 4.375 13.9158 4.375 13.75Z" fill="black" fill-opacity="0.5"/>
<path fill-rule="evenodd" clip-rule="evenodd" d="M14.3312 10.2441C14.062 10.2083 13.7312 10.2083 13.3712 10.2083H13.2962C12.9353 10.2083 12.6045 10.2083 12.3362 10.2441C12.0395 10.2841 11.727 10.3774 11.4695 10.6358C11.212 10.8941 11.1178 11.2058 11.0778 11.5024C11.042 11.7716 11.042 12.1024 11.042 12.4624V12.5374C11.042 12.8983 11.042 13.2291 11.0778 13.4974C11.1178 13.7941 11.2112 14.1066 11.4695 14.3641C11.7278 14.6216 12.0395 14.7158 12.3362 14.7558C12.6053 14.7916 12.9362 14.7916 13.2962 14.7916H13.3712C13.732 14.7916 14.0628 14.7916 14.3312 14.7558C14.6278 14.7158 14.9403 14.6224 15.1978 14.3641C15.4553 14.1058 15.5495 13.7941 15.5895 13.4974C15.6253 13.2283 15.6253 12.8974 15.6253 12.5374V12.4624C15.6253 12.1016 15.6253 11.7708 15.5895 11.5024C15.5495 11.2058 15.4562 10.8933 15.1978 10.6358C14.9395 10.3783 14.6278 10.2841 14.3312 10.2441ZM12.3553 11.5183L12.3528 11.5191L12.352 11.5216L12.3478 11.5299C12.3319 11.5749 12.3215 11.6216 12.317 11.6691C12.2937 11.8441 12.292 12.0891 12.292 12.4999C12.292 12.9108 12.2937 13.1558 12.317 13.3308C12.3222 13.3812 12.334 13.4308 12.352 13.4783L12.3528 13.4808L12.3553 13.4816L12.3637 13.4858C12.382 13.4933 12.422 13.5058 12.5028 13.5166C12.6778 13.5399 12.9228 13.5416 13.3337 13.5416C13.7445 13.5416 13.9895 13.5399 14.1645 13.5166C14.215 13.5114 14.2646 13.4996 14.312 13.4816L14.3145 13.4808L14.3153 13.4783L14.3195 13.4699C14.3354 13.425 14.3458 13.3782 14.3503 13.3308C14.3737 13.1558 14.3753 12.9108 14.3753 12.4999C14.3753 12.0891 14.3737 11.8441 14.3503 11.6691C14.3451 11.6186 14.3334 11.569 14.3153 11.5216L14.3145 11.5191L14.312 11.5183L14.3037 11.5141C14.2587 11.4982 14.212 11.4878 14.1645 11.4833C13.9895 11.4599 13.7445 11.4583 13.3337 11.4583C12.9228 11.4583 12.6778 11.4599 12.5028 11.4833C12.4523 11.4885 12.4028 11.5002 12.3553 11.5183Z" fill="black" fill-opacity="0.5"/>
<path d="M8.16176 2.66626H11.8376C15.3035 2.66626 17.0369 2.66626 18.1131 3.68926C18.8886 4.42534 19.1058 5.48593 19.1663 7.24959V8.16626H0.833008V7.24959C0.893508 5.48501 1.11076 4.42626 1.88626 3.68926C2.96242 2.66626 4.69584 2.66626 8.16176 2.66626Z" fill="black" fill-opacity="0.5"/>
</svg>
