<svg width="22" height="20" viewBox="0 0 22 20" fill="none" xmlns="http://www.w3.org/2000/svg">
<path d="M12.001 1.25977C12.6459 1.25982 13.262 1.50814 13.7139 1.94629C14.1652 2.38401 14.416 2.97517 14.416 3.58789V4.04785H20.626C20.6608 4.0479 20.6914 4.06127 20.7119 4.08105C20.732 4.10052 20.7412 4.12427 20.7412 4.14551C20.7411 4.16666 20.7319 4.1896 20.7119 4.20898C20.6914 4.22888 20.6609 4.24311 20.626 4.24316H19.0049L18.957 4.64844L17.584 16.1836C17.5007 16.8829 17.1551 17.5314 16.6084 18.0039C16.0613 18.4768 15.3509 18.7402 14.6133 18.7402H9.3877C8.6502 18.7401 7.94057 18.4766 7.39355 18.0039C6.84681 17.5314 6.50122 16.8829 6.41797 16.1836L5.04492 4.64844L4.99609 4.24316H3.37598C3.34099 4.24316 3.30962 4.22892 3.28906 4.20898C3.26931 4.18966 3.26081 4.16655 3.26074 4.14551C3.26074 4.12431 3.26906 4.1005 3.28906 4.08105C3.30962 4.06112 3.34099 4.04785 3.37598 4.04785H9.58594V3.58789C9.58594 2.97515 9.83668 2.38402 10.2881 1.94629C10.74 1.50819 11.3561 1.25977 12.001 1.25977ZM10.2754 7.03027C10.0055 7.03037 9.74384 7.13511 9.54883 7.32422C9.35352 7.51376 9.24133 7.77362 9.24121 8.04785V14.7393C9.24123 15.0138 9.35325 15.2742 9.54883 15.4639C9.74384 15.653 10.0055 15.7567 10.2754 15.7568C10.5454 15.7568 10.8078 15.6531 11.0029 15.4639C11.1985 15.2742 11.3105 15.0137 11.3105 14.7393V8.04785C11.3104 7.77367 11.1982 7.51375 11.0029 7.32422C10.8078 7.13502 10.5454 7.03027 10.2754 7.03027ZM13.7256 7.03027C13.4556 7.03032 13.1941 7.13507 12.999 7.32422C12.8037 7.51377 12.6905 7.77357 12.6904 8.04785V14.7393C12.6904 15.0138 12.8034 15.2742 12.999 15.4639C13.1941 15.6529 13.4557 15.7568 13.7256 15.7568C13.9955 15.7568 14.2571 15.6529 14.4521 15.4639C14.6477 15.2742 14.7607 15.0138 14.7607 14.7393V8.04785C14.7606 7.77349 14.6476 7.51378 14.4521 7.32422C14.257 7.13503 13.9956 7.03027 13.7256 7.03027ZM12.001 1.45508C11.4261 1.45508 10.8717 1.67607 10.4609 2.07422C10.0497 2.47302 9.81543 3.01761 9.81543 3.58789V4.04785H14.1855V3.58789C14.1855 3.01761 13.9523 2.47301 13.541 2.07422C13.1303 1.67599 12.5759 1.45513 12.001 1.45508Z" fill="#B32053" stroke="#B32053" stroke-width="0.92"/>
</svg>
