<svg width="25" height="25" viewBox="0 0 25 25" fill="none" xmlns="http://www.w3.org/2000/svg">
<path d="M14.2014 12.0018C14.3305 12.1199 14.404 12.2867 14.404 12.4616C14.404 12.6365 14.3305 12.8034 14.2014 12.9214L10.5673 16.2441C10.3133 16.4763 9.91925 16.4586 9.68708 16.2047C9.45491 15.9507 9.47256 15.5567 9.72649 15.3245L12.1764 13.0846L2.98238 13.0846C2.6383 13.0846 2.35938 12.8057 2.35938 12.4616C2.35938 12.1176 2.6383 11.8386 2.98238 11.8386L12.1764 11.8386L9.72649 9.59875C9.47256 9.36658 9.45491 8.97251 9.68708 8.71858C9.91925 8.46464 10.3133 8.447 10.5673 8.67917L14.2014 12.0018Z" fill="#6B6B6B"/>
<path d="M12.9504 19.3146C12.6063 19.3146 12.3274 19.5936 12.3274 19.9376C12.3274 20.2817 12.6063 20.5606 12.9504 20.5606L12.996 20.5606C14.132 20.5606 15.0476 20.5607 15.7678 20.4638C16.5155 20.3633 17.145 20.1483 17.645 19.6483C18.145 19.1483 18.3601 18.5187 18.4606 17.771C18.5574 17.0509 18.5574 16.1352 18.5574 14.9992L18.5574 9.92405C18.5574 8.78803 18.5574 7.87237 18.4606 7.15221C18.3601 6.40452 18.145 5.77498 17.645 5.27499C17.145 4.775 16.5155 4.55994 15.7678 4.45942C15.0476 4.36259 14.132 4.36261 12.996 4.36263L12.9504 4.36263C12.6063 4.36263 12.3274 4.64155 12.3274 4.98562C12.3274 5.3297 12.6063 5.60863 12.9504 5.60863C14.1427 5.60863 14.9743 5.60995 15.6018 5.69431C16.2113 5.77626 16.5341 5.92614 16.764 6.15604C16.9939 6.38594 17.1437 6.70871 17.2257 7.31824C17.3101 7.94568 17.3114 8.77727 17.3114 9.96962L17.3114 14.9536C17.3114 16.146 17.3101 16.9776 17.2257 17.605C17.1437 18.2145 16.9939 18.5373 16.764 18.7672C16.5341 18.9971 16.2113 19.147 15.6018 19.2289C14.9743 19.3133 14.1427 19.3146 12.9504 19.3146Z" fill="#6B6B6B"/>
</svg>
