<svg width="25" height="25" viewBox="0 0 25 25" fill="none" xmlns="http://www.w3.org/2000/svg">
<path fill-rule="evenodd" clip-rule="evenodd" d="M6.85299 10.844V9.13727C6.85299 6.04061 9.36333 3.53027 12.46 3.53027C15.5566 3.53027 18.067 6.04061 18.067 9.13727V10.844C18.993 10.9131 19.596 11.0877 20.0368 11.5285C20.7667 12.2584 20.7667 13.4331 20.7667 15.7826C20.7667 18.1321 20.7667 19.3068 20.0368 20.0367C19.3069 20.7666 18.1321 20.7666 15.7827 20.7666H9.13732C6.78784 20.7666 5.6131 20.7666 4.88321 20.0367C4.15332 19.3068 4.15332 18.1321 4.15332 15.7826C4.15332 13.4331 4.15332 12.2584 4.88321 11.5285C5.32399 11.0877 5.927 10.9131 6.85299 10.844ZM8.09899 9.13727C8.09899 6.72876 10.0515 4.77627 12.46 4.77627C14.8685 4.77627 16.821 6.72876 16.821 9.13727V10.8016C16.5028 10.7986 16.1577 10.7986 15.7827 10.7986H9.13732C8.76226 10.7986 8.41714 10.7986 8.09899 10.8016V9.13727Z" fill="#B32053"/>
</svg>
