<svg width="25" height="25" viewBox="0 0 25 25" fill="none" xmlns="http://www.w3.org/2000/svg">
<path fill-rule="evenodd" clip-rule="evenodd" d="M6.85201 10.844V9.13727C6.85201 6.04061 9.36235 3.53027 12.459 3.53027C15.5557 3.53027 18.066 6.04061 18.066 9.13727V10.844C18.992 10.9131 19.595 11.0877 20.0358 11.5285C20.7657 12.2584 20.7657 13.4331 20.7657 15.7826C20.7657 18.1321 20.7657 19.3068 20.0358 20.0367C19.3059 20.7666 18.1312 20.7666 15.7817 20.7666H9.13634C6.78686 20.7666 5.61212 20.7666 4.88223 20.0367C4.15234 19.3068 4.15234 18.1321 4.15234 15.7826C4.15234 13.4331 4.15234 12.2584 4.88223 11.5285C5.32301 11.0877 5.92602 10.9131 6.85201 10.844ZM8.09801 9.13727C8.09801 6.72876 10.0505 4.77627 12.459 4.77627C14.8675 4.77627 16.82 6.72876 16.82 9.13727V10.8016C16.5019 10.7986 16.1567 10.7986 15.7817 10.7986H9.13634C8.76129 10.7986 8.41617 10.7986 8.09801 10.8016V9.13727Z" fill="#6B6B6B"/>
</svg>
