<svg width="26" height="26" viewBox="0 0 26 26" fill="none" xmlns="http://www.w3.org/2000/svg">
<path d="M12.9997 23.7251C12.8733 23.7251 12.7559 23.716 12.6476 23.698C12.5393 23.6799 12.4309 23.6528 12.3226 23.6167C9.88509 22.8042 7.94412 21.3013 6.49967 19.1079C5.05523 16.9145 4.33301 14.5536 4.33301 12.0251V6.90631C4.33301 6.45492 4.46409 6.04867 4.72626 5.68756C4.98842 5.32645 5.32679 5.06464 5.74134 4.90214L12.2413 2.46464C12.4941 2.37436 12.7469 2.32922 12.9997 2.32922C13.2525 2.32922 13.5052 2.37436 13.758 2.46464L20.258 4.90214C20.6733 5.06464 21.012 5.32645 21.2742 5.68756C21.5363 6.04867 21.6671 6.45492 21.6663 6.90631V12.0251C21.6663 13.1626 21.5172 14.2686 21.2189 15.3433C20.9206 16.418 20.492 17.4424 19.933 18.4167L16.7372 15.2209C16.9358 14.8778 17.0849 14.5214 17.1846 14.1516C17.2843 13.7819 17.3337 13.398 17.333 13.0001C17.333 11.8084 16.9087 10.7882 16.0601 9.93964C15.2115 9.09103 14.1913 8.66672 12.9997 8.66672C11.808 8.66672 10.7879 9.09103 9.93926 9.93964C9.09065 10.7882 8.66634 11.8084 8.66634 13.0001C8.66634 14.1917 9.09065 15.2119 9.93926 16.0605C10.7879 16.9091 11.808 17.3334 12.9997 17.3334C13.3788 17.3334 13.7537 17.2839 14.1242 17.185C14.4947 17.086 14.8421 16.9369 15.1663 16.7376L18.6601 20.2042C17.974 21.0167 17.2203 21.7075 16.3992 22.2766C15.578 22.8457 14.6705 23.2924 13.6768 23.6167C13.5684 23.6528 13.4601 23.6799 13.3518 23.698C13.2434 23.716 13.1261 23.7251 12.9997 23.7251ZM12.9997 15.1667C12.4038 15.1667 11.894 14.9544 11.47 14.5297C11.0461 14.1051 10.8337 13.5952 10.833 13.0001C10.8323 12.4049 11.0446 11.8951 11.47 11.4704C11.8954 11.0457 12.4053 10.8334 12.9997 10.8334C13.5941 10.8334 14.1043 11.0457 14.5304 11.4704C14.9565 11.8951 15.1685 12.4049 15.1663 13.0001C15.1642 13.5952 14.9522 14.1054 14.5304 14.5308C14.1086 14.9562 13.5984 15.1682 12.9997 15.1667Z" fill="black" fill-opacity="0.5"/>
</svg>
