<svg width="26" height="26" viewBox="0 0 26 26" fill="none" xmlns="http://www.w3.org/2000/svg">
<path d="M13.0003 2.16663C18.9836 2.16663 23.8337 7.01671 23.8337 13C23.8337 18.9832 18.9836 23.8333 13.0003 23.8333C7.01708 23.8333 2.16699 18.9832 2.16699 13C2.16699 7.01671 7.01708 2.16663 13.0003 2.16663ZM13.0003 6.49996C12.713 6.49996 12.4375 6.6141 12.2343 6.81726C12.0311 7.02042 11.917 7.29597 11.917 7.58329V13C11.9171 13.2873 12.0312 13.5628 12.2344 13.7659L15.4844 17.0159C15.6887 17.2132 15.9624 17.3224 16.2464 17.3199C16.5305 17.3175 16.8022 17.2035 17.003 17.0027C17.2039 16.8018 17.3178 16.5301 17.3203 16.2461C17.3228 15.962 17.2136 15.6884 17.0162 15.484L14.0837 12.5515V7.58329C14.0837 7.29597 13.9695 7.02042 13.7664 6.81726C13.5632 6.6141 13.2876 6.49996 13.0003 6.49996Z" fill="black" fill-opacity="0.5"/>
</svg>
