<svg width="26" height="26" viewBox="0 0 26 26" fill="none" xmlns="http://www.w3.org/2000/svg">
<path opacity="0.3" d="M5.50301 8.66671H8.69884C9.04551 7.31254 9.54384 6.01254 10.1938 4.81004C8.20051 5.49254 6.54301 6.86838 5.50301 8.66671ZM8.12467 13C8.12467 12.2634 8.18967 11.5484 8.27634 10.8334H4.61467C4.44134 11.5267 4.33301 12.2525 4.33301 13C4.33301 13.7475 4.44134 14.4734 4.61467 15.1667H8.27634C8.18967 14.4517 8.12467 13.7367 8.12467 13ZM5.50301 17.3334C6.55031 19.1426 8.21627 20.5123 10.1938 21.19C9.54046 19.9701 9.03842 18.675 8.69884 17.3334H5.50301ZM12.9997 4.37671C12.1005 5.67671 11.3963 7.11754 10.9305 8.66671H15.0688C14.603 7.11754 13.8988 5.67671 12.9997 4.37671ZM20.4963 8.66671C19.4468 6.85941 17.7816 5.49038 15.8055 4.81004C16.4555 6.01254 16.9538 7.31254 17.3005 8.66671H20.4963ZM12.9997 21.6234C13.8988 20.3234 14.603 18.8825 15.0688 17.3334H10.9305C11.3963 18.8825 12.1005 20.3234 12.9997 21.6234ZM15.8055 21.19C17.7816 20.5097 19.4468 19.1407 20.4963 17.3334H17.3005C16.9609 18.675 16.4589 19.9701 15.8055 21.19ZM21.3847 10.8334H17.723C17.8097 11.5484 17.8747 12.2634 17.8747 13C17.8747 13.7367 17.8097 14.4517 17.723 15.1667H21.3847C21.558 14.4734 21.6663 13.7475 21.6663 13C21.6663 12.2525 21.558 11.5267 21.3847 10.8334ZM10.4647 10.8334C10.3672 11.5375 10.2913 12.2634 10.2913 13C10.2913 13.7367 10.3672 14.4517 10.4647 15.1667H15.5347C15.6322 14.4517 15.708 13.7367 15.708 13C15.708 12.2634 15.6322 11.5375 15.5347 10.8334H10.4647Z" fill="black" fill-opacity="0.5"/>
<path d="M12.9895 2.16663C7.00949 2.16663 2.16699 7.01996 2.16699 13C2.16699 18.98 7.00949 23.8333 12.9895 23.8333C18.9803 23.8333 23.8337 18.98 23.8337 13C23.8337 7.01996 18.9803 2.16663 12.9895 2.16663ZM20.497 8.66663H17.3012C16.9616 7.32504 16.4595 6.02991 15.8062 4.80996C17.7823 5.4903 19.4474 6.85933 20.497 8.66663ZM13.0003 4.37663C13.8995 5.67663 14.6037 7.11746 15.0695 8.66663H10.9312C11.397 7.11746 12.1012 5.67663 13.0003 4.37663ZM4.61533 15.1666C4.44199 14.4733 4.33366 13.7475 4.33366 13C4.33366 12.2525 4.44199 11.5266 4.61533 10.8333H8.27699C8.19033 11.5483 8.12533 12.2633 8.12533 13C8.12533 13.7366 8.19033 14.4516 8.27699 15.1666H4.61533ZM5.50366 17.3333H8.69949C9.04616 18.6875 9.54449 19.9875 10.1945 21.19C8.21692 20.5122 6.55096 19.1425 5.50366 17.3333ZM8.69949 8.66663H5.50366C6.55096 6.85741 8.21692 5.4877 10.1945 4.80996C9.54111 6.02991 9.03907 7.32504 8.69949 8.66663ZM13.0003 21.6233C12.1012 20.3233 11.397 18.8825 10.9312 17.3333H15.0695C14.6037 18.8825 13.8995 20.3233 13.0003 21.6233ZM15.5353 15.1666H10.4653C10.3678 14.4516 10.292 13.7366 10.292 13C10.292 12.2633 10.3678 11.5375 10.4653 10.8333H15.5353C15.6328 11.5375 15.7087 12.2633 15.7087 13C15.7087 13.7366 15.6328 14.4516 15.5353 15.1666ZM15.8062 21.19C16.4562 19.9875 16.9545 18.6875 17.3012 17.3333H20.497C19.4474 19.1406 17.7823 20.5096 15.8062 21.19ZM17.7237 15.1666C17.8103 14.4516 17.8753 13.7366 17.8753 13C17.8753 12.2633 17.8103 11.5483 17.7237 10.8333H21.3853C21.5587 11.5266 21.667 12.2525 21.667 13C21.667 13.7475 21.5587 14.4733 21.3853 15.1666H17.7237Z" fill="black" fill-opacity="0.5"/>
</svg>
