<svg width="26" height="26" viewBox="0 0 26 26" fill="none" xmlns="http://www.w3.org/2000/svg">
<path d="M17.333 6.5H11.3747V10.8333H1.08301V16.25H3.24967C3.24967 17.112 3.59208 17.9386 4.20158 18.5481C4.81107 19.1576 5.63772 19.5 6.49967 19.5C7.36163 19.5 8.18828 19.1576 8.79777 18.5481C9.40727 17.9386 9.74967 17.112 9.74967 16.25H16.2497C16.2497 17.112 16.5921 17.9386 17.2016 18.5481C17.8111 19.1576 18.6377 19.5 19.4997 19.5C20.3616 19.5 21.1883 19.1576 21.7978 18.5481C22.4073 17.9386 22.7497 17.112 22.7497 16.25H24.9163V13C24.9163 11.7975 23.9522 10.8333 22.7497 10.8333H20.583L17.333 6.5ZM12.9997 8.125H16.7913L18.9147 10.8333H12.9997V8.125ZM6.49967 14.625C6.93065 14.625 7.34398 14.7962 7.64872 15.101C7.95347 15.4057 8.12467 15.819 8.12467 16.25C8.12467 16.681 7.95347 17.0943 7.64872 17.399C7.34398 17.7038 6.93065 17.875 6.49967 17.875C6.0687 17.875 5.65537 17.7038 5.35063 17.399C5.04588 17.0943 4.87467 16.681 4.87467 16.25C4.87467 15.819 5.04588 15.4057 5.35063 15.101C5.65537 14.7962 6.0687 14.625 6.49967 14.625ZM19.4997 14.625C19.9307 14.625 20.344 14.7962 20.6487 15.101C20.9535 15.4057 21.1247 15.819 21.1247 16.25C21.1247 16.681 20.9535 17.0943 20.6487 17.399C20.344 17.7038 19.9307 17.875 19.4997 17.875C19.0687 17.875 18.6554 17.7038 18.3506 17.399C18.0459 17.0943 17.8747 16.681 17.8747 16.25C17.8747 15.819 18.0459 15.4057 18.3506 15.101C18.6554 14.7962 19.0687 14.625 19.4997 14.625Z" fill="black" fill-opacity="0.5"/>
</svg>
